<?xml version="1.0" standalone="no"?><!DOCTYPE svg PUBLIC "-//W3C//DTD SVG 1.1//EN" "http://www.w3.org/Graphics/SVG/1.1/DTD/svg11.dtd"><svg t="1679490487672" class="icon" viewBox="0 0 1024 1024" version="1.1" xmlns="http://www.w3.org/2000/svg" p-id="7494" xmlns:xlink="http://www.w3.org/1999/xlink" width="200" height="200"><path d="M203.02 570.99V377.45c0-25.31 20.52-45.83 45.83-45.83H780.9c25.31 0 45.83 20.52 45.83 45.83v511.46c0 25.31-20.52 45.83-45.83 45.83H248.01c-25.31 0-45.83-20.52-45.83-45.83V694.53" fill="#D0DDEA" p-id="7495"></path><path d="M780.9 950.95H248.01c-34.21 0-62.05-27.83-62.05-62.05V694.53c0-8.96 7.26-16.22 16.22-16.22 8.96 0 16.22 7.26 16.22 16.22v194.38c0 16.32 13.28 29.6 29.6 29.6h532.9c16.32 0 29.6-13.28 29.6-29.6V377.45c0-16.32-13.28-29.6-29.6-29.6H248.85c-16.32 0-29.6 13.28-29.6 29.6v193.54c0 8.96-7.26 16.22-16.22 16.22s-16.22-7.26-16.22-16.22V377.45c0-34.21 27.83-62.05 62.05-62.05H780.9c34.21 0 62.05 27.83 62.05 62.05v511.46c-0.01 34.21-27.84 62.04-62.05 62.04z" fill="#5E125C" p-id="7496"></path><path d="M162.62 448.08V220.98c0-30.81 24.98-55.79 55.79-55.79h609.3c30.81 0 55.79 24.98 55.79 55.79v601.19c0 30.81-24.98 55.79-55.79 55.79H217.42c-30.81 0-55.79-24.98-55.79-55.79V594.08" fill="#F8F9FB" p-id="7497"></path><path d="M883.5 382.21V219.99c0-30.81-24.98-55.79-55.79-55.79H202.19c-30.81 0-55.79 24.98-55.79 55.79v162.22h737.1z" fill="#E2696C" p-id="7498"></path><path d="M813.94 177.1H215.91c-29.46 0-52.39 25.37-52.39 52.55v56.22c0-20.28 11.62-35.77 30.55-35.77h651.31c12.09 0 23.78 11.81 23.78 22.97v-43.41c0.01-27.2-25.76-52.56-55.22-52.56z" fill="#FFFFFF" opacity=".5" p-id="7499"></path><path d="M827.71 894.18H201.2c-39.71 0-72.01-32.3-72.01-72.01V594.08c0-8.96 7.26-16.22 16.22-16.22s16.22 7.26 16.22 16.22v228.09c0 21.82 17.75 39.57 39.57 39.57h626.51c21.82 0 39.57-17.75 39.57-39.57V220.98c0-21.82-17.75-39.57-39.57-39.57H202.19c-21.82 0-39.57 17.75-39.57 39.57v227.1c0 8.96-7.26 16.22-16.22 16.22s-16.22-7.26-16.22-16.22v-227.1c0-39.71 32.3-72.01 72.01-72.01h625.52c39.71 0 72.01 32.3 72.01 72.01v601.19c0 39.7-32.31 72.01-72.01 72.01z" fill="#5E125C" p-id="7500"></path><path d="M883.5 399.42c-8.96 0-16.22-7.26-16.22-16.22V220.98c0-21.82-17.75-39.57-39.57-39.57H202.19c-21.82 0-39.57 17.75-39.57 39.57v146h664.1c8.96 0 16.22 7.26 16.22 16.22 0 8.96-7.26 16.22-16.22 16.22H130.17V220.98c0-39.71 32.3-72.01 72.01-72.01H827.7c39.71 0 72.01 32.3 72.01 72.01V383.2c0.01 8.95-7.26 16.22-16.21 16.22zM145.41 561.63c-8.96 0-16.22-7.26-16.22-16.22v-48.67c0-8.96 7.26-16.22 16.22-16.22s16.22 7.26 16.22 16.22v48.67c0 8.96-7.26 16.22-16.22 16.22z" fill="#5E125C" p-id="7501"></path><path d="M335.57 269.64h-64c-2.49 0-4.5-2.01-4.5-4.5V87.59c0-2.49 2.01-4.5 4.5-4.5h64c2.49 0 4.5 2.01 4.5 4.5v177.55c0 2.49-2.01 4.5-4.5 4.5z" fill="#F8F9FB" p-id="7502"></path><path d="M303.57 285.87c-29.07 0-52.72-23.65-52.72-52.72V119.59c0-29.07 23.65-52.72 52.72-52.72s52.72 23.65 52.72 52.72v113.55c0 29.07-23.65 52.73-52.72 52.73z m0-186.55c-11.18 0-20.28 9.1-20.28 20.28v113.55c0 11.18 9.1 20.28 20.28 20.28 11.18 0 20.28-9.1 20.28-20.28V119.59c0-11.18-9.1-20.27-20.28-20.27z" fill="#5E125C" p-id="7503"></path><path d="M757.33 269.64h-64c-2.49 0-4.5-2.01-4.5-4.5V87.59c0-2.49 2.01-4.5 4.5-4.5h64c2.49 0 4.5 2.01 4.5 4.5v177.55c0 2.49-2.01 4.5-4.5 4.5z" fill="#F8F9FB" p-id="7504"></path><path d="M725.34 285.87c-29.07 0-52.72-23.65-52.72-52.72V119.59c0-29.07 23.65-52.72 52.72-52.72s52.72 23.65 52.72 52.72v113.55c0 29.07-23.66 52.73-52.72 52.73z m0-186.55c-11.18 0-20.28 9.1-20.28 20.28v113.55c0 11.18 9.1 20.28 20.28 20.28s20.28-9.1 20.28-20.28V119.59c-0.01-11.18-9.1-20.27-20.28-20.27zM769.94 577.86H258.96c-8.96 0-16.22-7.26-16.22-16.22s7.26-16.22 16.22-16.22h510.98c8.96 0 16.22 7.26 16.22 16.22s-7.26 16.22-16.22 16.22zM769.94 699.52H258.96c-8.96 0-16.22-7.26-16.22-16.22 0-8.96 7.26-16.22 16.22-16.22h510.98c8.96 0 16.22 7.26 16.22 16.22 0.01 8.95-7.26 16.22-16.22 16.22z" fill="#5E125C" p-id="7505"></path><path d="M331.96 772.52c-8.96 0-16.22-7.26-16.22-16.22V504.86c0-8.96 7.26-16.22 16.22-16.22 8.96 0 16.22 7.26 16.22 16.22V756.3c0 8.95-7.26 16.22-16.22 16.22zM453.62 772.52c-8.96 0-16.22-7.26-16.22-16.22V504.86c0-8.96 7.26-16.22 16.22-16.22 8.96 0 16.22 7.26 16.22 16.22V756.3c0 8.95-7.26 16.22-16.22 16.22zM575.28 772.52c-8.96 0-16.22-7.26-16.22-16.22V504.86c0-8.96 7.26-16.22 16.22-16.22s16.22 7.26 16.22 16.22V756.3c0.01 8.95-7.26 16.22-16.22 16.22zM696.95 772.52c-8.96 0-16.22-7.26-16.22-16.22V504.86c0-8.96 7.26-16.22 16.22-16.22s16.22 7.26 16.22 16.22V756.3c0 8.95-7.26 16.22-16.22 16.22z" fill="#5E125C" p-id="7506"></path><path d="M348.18 576.84h89.22v91.25h-89.22z" fill="#ABCF79" p-id="7507"></path></svg>