<?xml version="1.0" standalone="no"?><!DOCTYPE svg PUBLIC "-//W3C//DTD SVG 1.1//EN" "http://www.w3.org/Graphics/SVG/1.1/DTD/svg11.dtd"><svg t="1678623150630" class="icon" viewBox="0 0 1024 1024" version="1.1" xmlns="http://www.w3.org/2000/svg" p-id="3376" xmlns:xlink="http://www.w3.org/1999/xlink" width="200" height="200"><path d="M629.8 130.9c4.9-2.5 11.6-5.9 13.7-7.7 1.1-1.3 4.1-6.2 5.4-12.8 1.2-5.9 0.3-9 0-9.4-0.5-0.6-4.4-2.6-14-2.6-4.7 0-10 0.5-16 1.5-33.1 5.4-58.7 39.8-74.4 67.8-6 10.7-11.1 21.4-15.2 30.9l30.9 1.1c15.4-40.9 48.5-57.9 69.6-68.8z" fill="#C69C6D" p-id="3377"></path><path d="M887.1 576.2c-6.5-68.7-36.5-132.9-86.3-184.4 24.2 26.9 44.7 58.6 44.7 58.6 31.3 49.4 40.5 117.1 41.6 125.8zM299.1 830.7c65.2 60.9 152.1 94 244.6 94 9.2 0 18.4-0.3 27.5-1 313.3-147.2 197.9-561 197.9-561-16.2 10.2-45.8 19.2-89.8-4.6-16.3-8.8-30.1-21-41.8-34.5-5.8 5.7-10.1 9.1-10.1 9.1s-60.3 49.2-135.7 13.7c-18.9-9.9-32.8-19.3-42.8-28.2-33 22.7-74.9 28.3-108.5 28.3-14.5 9.9-28.4 20.9-41.3 33-64.6 60.3-100.3 140.5-100.3 225.6 0 5.6 0.2 11.2 0.5 16.7 1.6 20.4 5.1 42 10.9 64.9 24.9 55.7 48.5 96.3 69.1 125.6 1.7 0.8 3.3 1.9 4.7 3.4 4.8 5.2 9.8 10.1 15.1 15zM784.4 833.8c-37.4 32.7-75.8 53.7-109.7 67.1 40.4-15.4 77.6-38 109.7-67.1zM792.7 826.1c20.9-20.2 38.6-42.5 52.8-66.3-19.2 31.3-41.5 55.1-52.8 66.3zM888 621.8c0.3-5.6 0.5-11.3 0.5-17 0-9.2-0.4-18.3-1.3-27.3 0.5 14.9 1.2 29.2 0.8 44.3z" fill="#864BF5" p-id="3378"></path><path d="M454.7 242.1c-15.7-3.7-37.2-7.5-59.1-7.5-31.3 0-54 7.6-67.5 22.5-10.9 12.1-16.9 30.1-17.7 53.7 33.4-7.6 120.3-29.2 152.5-54.3 0.4-1.6 0.8-3.2 1-4.8 0.4-2.6 0.5-5 0.4-7.1-2.9-0.9-6.1-1.7-9.6-2.5zM628.1 263.9c-2.9-1.8-6.7-3.8-11.7-5.8-6.2-2.5-13.4-4.7-21.6-6.6-18.5-4.4-42-7.5-70.1-9.1-6.2 1.9-18.3 6-30.8 11.9-0.1 1.3-0.4 2.5-0.6 3.8-1.8 9.9-6.1 21-14.7 32.5-1.9 2.6-4.1 5.2-6.5 7.8 7 5.8 17.4 12.8 33.1 21.1 13.9 6.5 28.3 9.8 42.6 9.8 33.3 0 57.9-17.7 60.7-19.8l0.4-0.3c0.1-0.1 4.9-3.9 10.6-9.9 1.6-1.7 3.3-3.6 5-5.6 0.8-1 1.7-2 2.5-3.1 8.8-11.5 9.5-18 9-19.6-0.7-1.2-2.8-3.9-7.9-7.1zM744.3 341.3c0.1 0 0.1 0 0 0 0.4-0.1 0.7-0.2 0.9-0.3l-0.9 0.3z" fill="#B4E84B" p-id="3379"></path><path d="M733.8 282.1c-8.5-19.4-18.5-34.6-29.6-45.1-12-11.3-25.3-16.9-40.4-16.9-0.7 0-1.4-0.1-2.2-0.1-0.6 0-1.2-0.1-1.8-0.1-0.2 0-0.4 0.2-0.7 0.3-0.6 0-1.3 0.3-1.9 0.4-0.7 0.1-1.4 0.1-2.1 0.2-0.1 0-0.2 0-0.4 0.1h-0.3c-0.5 0.1-1.1 0.1-1.6 0.2-0.1 0-0.3 0-0.4 0.1-0.7 0.1-1.5 0.2-2.2 0.4-0.8 0.1-1.5 0.3-2.3 0.5h-0.3c-0.7 0.2-1.5 0.3-2.2 0.5l-2.4 0.6c-0.8 0.2-1.6 0.4-2.4 0.7-1.6 0.5-3.3 1-5 1.6-0.8 0.3-1.7 0.6-2.5 0.9-0.9 0.3-1.7 0.6-2.6 1-0.9 0.3-1.7 0.7-2.6 1-0.9 0.3-1.7 0.7-2.6 1.1 0.4 0.2 0.8 0.3 1.2 0.5 0.5 0.2 1 0.4 1.6 0.6 0.5 0.2 0.9 0.4 1.4 0.6 0.9 0.4 1.7 0.7 2.5 1.1 2.2 1 4.2 1.9 6.1 3 0.4 0.2 0.8 0.4 1.1 0.6 1.1 0.6 2.2 1.2 3.2 1.8 0.3 0.2 0.7 0.4 1 0.6 0.3 0.2 0.7 0.4 1 0.6s0.6 0.4 1 0.6l0.9 0.6 0.9 0.6c0.6 0.4 1.2 0.9 1.8 1.3 0.5 0.4 0.9 0.7 1.4 1.1 0 0 0.1 0 0.1 0.1 0.2 0.2 0.4 0.4 0.6 0.5 0.6 0.5 1.1 1 1.7 1.5 0.3 0.3 0.5 0.5 0.8 0.7 0.3 0.3 0.5 0.5 0.8 0.7 0.2 0.2 0.5 0.4 0.7 0.7l0.3 0.3c0.3 0.3 0.6 0.7 0.9 1 0.2 0.2 0.4 0.5 0.6 0.7l0.6 0.6s0.1 0 0.1 0.1c0.1 0.1 0.1 0.2 0.2 0.3 0.1 0.1 0.1 0.3 0.1 0.4 0.2 0.1 0.4 0.3 0.5 0.5 0.5 0.5 0.7 1 1.4 1.6 0.8 0.9 1 1.9 1.5 2.8 0.1 0.2 0.3 0.4 0.5 0.7 0.1 0.1 0.2 0.3 0.3 0.5 0.1 0.1 0.2 0.3 0.3 0.5 0 0.1 0.1 0.1 0.1 0.2s0.1 0.2 0.1 0.3c0.1 0.1 0.1 0.3 0.2 0.4 0.1 0.1 0.1 0.3 0.2 0.4 0.1 0.2 0.1 0.3 0.2 0.5 0 0.1 0.1 0.2 0.1 0.3 0.3 0.6 0.5 1.3 0.7 1.9v0.2c0.1 0.2 0.1 0.4 0.2 0.5l0.3 0.9c0 0.2 0.1 0.3 0.2 0.5 0.3 1 0.6 1.9 0.7 2.9 0.1 0.4 0.4 0.7 0.4 1.1 0 0.3-0.1 0.6-0.1 0.9 0 0.1-0.2 0.1-0.2 0.2 0 0.2 0 0.5 0.1 0.7v4.9c0 0.4 0 0.8-0.1 1.2 0 0.3 0 0.6-0.1 0.9-0.1 1.1-0.3 2.1-0.5 3.2l-0.3 1.5v0.1c-0.1 0.5-0.2 1.1-0.4 1.6-0.3 1.1-0.6 2.2-1 3.3-0.5 1.6-1.2 3.2-1.8 4.8v0.1c-1 2.3-2.2 4.7-3.5 6.9v4.2c0.1 0.1 0.2 0.2 0.2 0.3 0.4 0.4 0.7 0.8 1.1 1.2 1.9 2.3 3.9 4.5 6 6.6 2.7 2.8 5.6 5.5 8.6 8.1 1.2 1 2.4 2 3.7 3h-0.1l0.1 0.1c0.1 0 0.2 0.1 0.2 0.1 0.5 0.4 1.2 0.9 1.8 1.3h0.3s-0.2 0-0.1 0.1c0.6 0.5 1.1 0.9 1.7 1.4 0.1 0.1 0.2 0.1 0.3 0.2 0.3 0.2 0.5 0.4 0.8 0.6 0.3 0.2 0.6 0.5 1 0.7l0.9 0.6c0.1 0.1 0.3 0.2 0.4 0.3l2.7 1.8c0.3 0.2 0.5 0.3 0.8 0.5 0.2 0.1 0.4 0.2 0.5 0.3 0.6 0.4 1.2 0.7 1.8 1.1 0.2 0.1 0.5 0.3 0.7 0.4l2.1 1.2c3.8 2 7.4 3.8 11 5.3 0.5 0.2 1.1 0.4 1.6 0.6 0.7 0.3 1.4 0.6 2.1 0.8 0.5 0.2 1.1 0.4 1.6 0.6 0.7 0.2 1.4 0.5 2 0.7 0.5 0.2 1.1 0.3 1.6 0.5 0.7 0.2 1.3 0.4 2 0.6 0.5 0.1 1.1 0.3 1.6 0.4 0.6 0.2 1.3 0.3 1.9 0.4 0.5 0.1 1.1 0.2 1.6 0.3l1.8 0.3c3.2 0.5 6.3 0.8 9.3 0.8 1.7 0 3.2-0.1 4.7-0.2s2.9-0.3 4.3-0.6c0.5-0.1 0.8-0.2 1.3-0.3 0.4-0.1 1.1-0.2 1.1-0.3h0.8c0.1 0 0.1-0.1 0.2-0.1h0.2c0.5-0.1 0.9-0.3 1.3-0.4 0.1 0 0.2-0.1 0.3-0.1 0.2 0 0.3-0.1 0.5-0.2 0.1 0 0.2-0.1 0.3-0.1 0.1 0 0.1 0 0.2-0.1 0.5-0.2 1-0.4 1.4-0.6 0.1 0 0.3-0.1 0.4-0.1 0.1 0 0.1-0.1 0.2-0.1s0.1-0.1 0.1-0.1h0.2c0.1-0.1 0.3-0.1 0.4-0.2l0.6-0.3c0.4-0.2 0.7-0.4 1.1-0.6-1.6-7.9-4-18.2-7.6-29.6-2.5-8.7-5.7-17.9-9.7-27z" fill="#B4E84B" p-id="3380"></path><path d="M658.4 302.1c-0.1-0.1-0.2-0.2-0.2-0.3v0.3c0.4 0.4 0.8 0.8 0.8 1.3 3 2.8 5.2 5.6 7.8 8.2 1.2 1.2 2.6 2.4 3.9 3.5-1.8-1.7-3.5-3.4-5.2-5.1-2.1-2.1-4.1-4.3-6-6.6-0.4-0.5-0.7-0.9-1.1-1.3zM671.5 315.8c0.5 0.4 0.9 0.8 1.4 1.2 0.2 0.2 0.4 0.4 0.7 0.6 0.5 0.4 1 0.9 1.5 1.3 0.1 0 0 0.1 0 0.1 1 0.5 1 0.9 1.6 1.4 0.2 0.1 0.4 0.3 0.4 0.4 0 0.1 0.4 0.1 0.5 0.1h0.1l-3.6-3c-0.9-0.6-1.8-1.4-2.6-2.1z" fill="#B4E84B" p-id="3381"></path><path d="M656.7 300l1.5 1.8c0.1 0.1 0.2 0.2 0.2 0.3-0.1-0.1-0.2-0.2-0.2-0.3l-1.5-1.8z" fill="" p-id="3382"></path><path d="M781 334c-10.3-51.2-53.6-204.2-194.5-117.8 14.4-48.3 60.4-55.6 77.3-70.9 18.5-16.7 37.9-89.5-49.6-75.2C537.7 82.6 497.9 193 489.1 220.7v-0.1S261.6 140 281.5 340.7c0 0 5 1.1 13.5 2.4-77.4 64.1-126.2 157.9-126.2 262 0 31 4.3 61.2 12.4 89.9 1.8 6.5 7.7 11 14.5 11 8.5 0 15-7 15-15 0-1.3-0.2-2.7-0.6-4.1-6-21.4-9.7-42.9-10.9-65.1-0.3-5.5-0.5-11.1-0.5-16.7 0-85 35.6-165.2 100.3-225.6 13-12.1 26.8-23.2 41.3-33 33.6 0.1 75.6-5.6 108.5-28.3 10 9 23.9 18.4 42.8 28.2 75.4 35.5 135.7-13.7 135.7-13.7s4.3-3.4 10.1-9.1c11.7 13.5 25.5 25.7 41.8 34.5 43.9 23.8 73.6 14.8 89.8 4.6 10.4 6.8 21.4 17.5 31.8 29 49.8 51.6 79.8 115.8 86.3 184.4 0.1 0.6 0.1 0.9 0.1 0.9v0.4c0.8 9 1.3 18.1 1.3 27.3 0 5.7-0.2 11.4-0.5 17-0.7 26.8-5 56-20.8 94.2-6 15.7-13.5 30.4-21.7 43.7-14.3 23.9-32 46.2-52.8 66.3-4.7 4.6-7.5 7.1-7.5 7.1-0.3 0.2-0.5 0.4-0.8 0.7-32.1 29.1-69.3 51.7-109.7 67.1-60 23.7-105.7 23.8-105.7 23.8 0.7-0.3 1.4-0.7 2.1-1-9.1 0.7-18.2 1-27.5 1-92.5 0-179.4-33.1-244.6-94-5.2-4.9-10.3-9.8-15.2-14.9-1.3-1.4-2.9-2.6-4.7-3.4-2-0.9-4.1-1.4-6.3-1.4-13.1 0-19.9 15.7-10.9 25.3C330.6 908.8 431.3 955 543.5 955c207 0 374.8-156.8 374.8-350.1 0.2-109-53.4-206.7-137.3-270.9zM544.6 167.5c15.7-27.9 41.3-62.4 74.4-67.8 5.9-1 11.3-1.5 16-1.5 9.6 0 13.5 2.1 14 2.6 0.3 0.4 1.2 3.5 0 9.4-1.4 6.6-4.4 11.6-5.4 12.8-2.1 1.8-8.8 5.2-13.7 7.7-21.1 10.9-54.1 27.8-69.5 68.6l-30.9-1.1c4-9.3 9.1-19.9 15.1-30.7z m-80.7 84.1c-0.2 1.6-0.6 3.2-1 4.8-0.7 2.5-1.6 4.9-2.8 7.4-5 10.2-14.2 20-27.6 29.3l-1.8 1.2c-27.4 18.3-63.8 22.1-89.8 22.1-3.1 0-6.2-0.1-9.2-0.2-8-0.3-15.2-0.8-21.5-1.5 0-1.4 0.1-2.7 0.1-4 0.9-23.6 6.8-41.6 17.7-53.7 13.5-14.9 36.2-22.5 67.5-22.5 21.9 0 43.4 3.8 59.1 7.5 3.5 0.8 6.7 1.6 9.6 2.4 0.2 2.2 0.1 4.6-0.3 7.2z m162.9 39c-0.8 1.1-1.6 2.1-2.5 3.1-1.7 2-3.4 3.9-5 5.6-5.7 6-10.5 9.8-10.6 9.9l-0.4 0.3c-2.8 2.1-27.4 19.8-60.7 19.8-14.3 0-28.7-3.3-42.6-9.8-15.7-8.2-26.1-15.3-33.1-21.1 2.4-2.6 4.6-5.2 6.5-7.8 8.6-11.5 12.9-22.6 14.7-32.5 0.2-1.3 0.4-2.6 0.6-3.8 12.6-5.9 24.6-10 30.8-11.9 28.1 1.7 51.6 4.7 70.1 9.1 8.2 1.9 15.4 4.1 21.6 6.6 5 2 8.9 4 11.7 5.8 5.1 3.2 7.3 5.8 7.7 7.1 0.7 1.6 0 8.1-8.8 19.6z m117.6 50.7c0.2-0.1 0.6-0.2 0.9-0.3l-0.9 0.3z m5.8-2.3l-0.6 0.3c-0.1 0.1-0.3 0.1-0.4 0.2h-0.2s0 0.1-0.1 0.1-0.1 0.1-0.2 0.1c-0.1 0.1-0.3 0.1-0.4 0.1-0.5 0.2-0.9 0.4-1.4 0.6-0.1 0-0.1 0-0.2 0.1-0.1 0-0.2 0.1-0.3 0.1-0.2 0.1-0.3 0.1-0.5 0.2-0.1 0-0.2 0.1-0.3 0.1-0.4 0.1-0.9 0.3-1.3 0.4h-0.2c-0.1 0-0.1 0.1-0.2 0.1h-0.4-0.4c0 0.1-0.6 0.2-1.1 0.3-0.4 0.1-0.8 0.2-1.3 0.3-1.4 0.3-2.8 0.5-4.3 0.6-1.5 0.1-3 0.2-4.7 0.2-3 0-6.1-0.3-9.3-0.8l-1.8-0.3c-0.5-0.1-1.1-0.2-1.6-0.3-0.6-0.1-1.2-0.3-1.9-0.4-0.5-0.1-1.1-0.3-1.6-0.4-0.6-0.2-1.3-0.4-2-0.6-0.5-0.2-1.1-0.3-1.6-0.5-0.7-0.2-1.4-0.5-2-0.7-0.5-0.2-1.1-0.4-1.6-0.6-0.7-0.3-1.4-0.5-2.1-0.8-0.5-0.2-1-0.4-1.6-0.6-3.6-1.5-7.3-3.2-11-5.3l-2.1-1.2c-0.2-0.1-0.5-0.3-0.7-0.4-0.6-0.4-1.2-0.7-1.8-1.1-0.2-0.1-0.4-0.2-0.5-0.3-0.3-0.2-0.5-0.3-0.8-0.5l-2.7-1.8c-0.1-0.1-0.3-0.2-0.4-0.3l-0.9-0.6c-0.3-0.2-0.6-0.4-1-0.7-0.3-0.2-0.5-0.4-0.8-0.6-0.1-0.1-0.2-0.1-0.3-0.2-0.6-0.4-1-0.9-1.7-1.4l0.1-0.1h-0.3c-0.5-0.4-1.2-0.9-1.8-1.3 0 0-0.1 0-0.2-0.1l-0.1-0.1h-0.1c-0.1-0.1-0.5-0.1-0.5-0.1 0-0.1-0.3-0.3-0.4-0.4-0.5-0.4-0.6-0.9-1.6-1.4v-0.1c-0.5-0.4-1-0.9-1.5-1.3-0.2-0.2-0.5-0.4-0.7-0.6-0.5-0.4-0.9-0.8-1.4-1.2 0.9 0.8 1.7 1.5 2.6 2.3-3-2.6-5.8-5.3-8.6-8.1 1.7 1.8 3.4 3.5 5.2 5.1-1.3-1.2-2.7-2.3-3.9-3.5-2.6-2.6-4.8-5.4-7.8-8.2 0-0.4-0.4-0.8-0.8-1.3-0.1-0.1-0.2-0.3-0.4-0.4-0.4-0.5-0.6-0.9-1-1.4-0.1-0.1-0.1-0.2-0.2-0.3 0.3-0.6 0.7-1.1 1-1.7 0.1-0.3 0.3-0.5 0.4-0.8 1.3-2.3 2.5-4.6 3.5-6.9v-0.1c0.7-1.6 1.3-3.2 1.8-4.8 0.4-1.1 0.7-2.2 1-3.3 0.1-0.5 0.3-1 0.4-1.6v-0.1l0.3-1.5c0.2-1.1 0.4-2.1 0.5-3.2 0-0.3 0.1-0.6 0.1-0.9 0-0.4 0.1-0.8 0.1-1.2 0.1-0.9 0.1-1.9 0-2.8v-0.6-0.7-0.6-0.2c0-0.2 0-0.4-0.1-0.7 0-0.1 0.2-0.1 0.2-0.2 0-0.3 0.1-0.6 0.1-0.9 0-0.4-0.3-0.7-0.4-1.1-0.1-1-0.5-1.9-0.7-2.9-0.1-0.2-0.2-0.4-0.2-0.5l-0.3-0.9c-0.1-0.2-0.1-0.4-0.2-0.5v-0.2c-0.2-0.6-0.4-1.3-0.7-1.9 0-0.1-0.1-0.2-0.1-0.3-0.1-0.2-0.1-0.3-0.2-0.5-0.1-0.1-0.1-0.3-0.2-0.4-0.1-0.1-0.1-0.3-0.2-0.4 0-0.1-0.1-0.2-0.1-0.3 0-0.1-0.1-0.1-0.1-0.2-0.1-0.2-0.2-0.3-0.3-0.5-0.1-0.2-0.2-0.3-0.3-0.5-0.2-0.2-0.3-0.4-0.5-0.7-0.5-0.9-0.7-1.9-1.5-2.8-0.8-0.5-0.9-1-1.4-1.6l-0.5-0.5c0-0.1 0-0.3-0.1-0.4-0.1-0.1-0.1-0.2-0.2-0.3l-0.1-0.1-0.6-0.6c-0.2-0.2-0.4-0.5-0.6-0.7-0.3-0.3-0.6-0.7-0.9-1l-0.3-0.3c-0.2-0.2-0.4-0.5-0.7-0.7-0.3-0.3-0.5-0.5-0.8-0.7-0.3-0.3-0.5-0.5-0.8-0.7-0.5-0.5-1.1-1-1.7-1.5-0.2-0.2-0.4-0.4-0.6-0.5 0 0-0.1 0-0.1-0.1-0.4-0.4-0.9-0.7-1.4-1.1-0.6-0.4-1.2-0.9-1.8-1.3l-0.9-0.6-0.9-0.6c-0.3-0.2-0.6-0.4-1-0.6s-0.7-0.4-1-0.6c-0.3-0.2-0.7-0.4-1-0.6-1-0.6-2.1-1.2-3.2-1.8-0.4-0.2-0.7-0.4-1.1-0.6-1.9-1-4-2-6.1-3-0.8-0.4-1.7-0.7-2.5-1.1-0.5-0.2-0.9-0.4-1.4-0.6-0.5-0.2-1-0.4-1.6-0.6-0.4-0.2-0.8-0.3-1.2-0.5 0.9-0.4 1.7-0.8 2.6-1.1 0.9-0.4 1.7-0.7 2.6-1 0.9-0.3 1.7-0.7 2.6-1 0.8-0.3 1.7-0.6 2.5-0.9 1.7-0.6 3.3-1.1 5-1.6 0.8-0.2 1.6-0.5 2.4-0.7l2.4-0.6c0.7-0.2 1.5-0.3 2.2-0.5h0.3c0.8-0.2 1.5-0.3 2.3-0.5 0.7-0.1 1.5-0.3 2.2-0.4 0.1 0 0.3 0 0.4-0.1 0.5-0.1 1.1-0.2 1.6-0.2h0.3c0.1 0 0.2 0 0.4-0.1 0.7-0.1 1.4-0.2 2.1-0.2 0.6-0.1 1.3-0.3 1.9-0.4 0.2 0 0.5-0.3 0.7-0.3 0.6 0 1.2 0.1 1.8 0.1 0.7 0 1.5 0.1 2.2 0.1 15.2 0 28.4 5.5 40.4 16.9 11.1 10.5 21.1 25.6 29.6 45.1 4 9.1 7.3 18.3 9.9 26.8 3.5 11.4 6 21.7 7.6 29.6-0.4 0.4-0.8 0.6-1.1 0.8z" fill="" p-id="3383"></path><path d="M677.7 321c-1.3-0.9-2.5-1.9-3.7-3l3.6 3h0.1zM658.4 302.1c0.4 0.4 0.7 0.8 1.1 1.3 1.9 2.3 3.9 4.4 6 6.6-2.1-2.2-4.1-4.4-6-6.6-0.4-0.5-0.7-0.9-1.1-1.3zM232.9 744.2c-2.6-4.9-7.7-8.1-13.3-8.1-8.7 0-15 7.1-15 15 0 2.3 0.5 4.8 1.7 7 2.8 5.3 5.7 10.3 8.7 15.5 2.7 4.6 7.6 7.4 12.9 7.4 11.6 0 18.8-12.6 12.9-22.6-2.8-4.7-5.4-9.5-7.9-14.2z" fill="" p-id="3384"></path><path d="M571.1 923.7c-0.7 0.3-1.4 0.7-2.1 1 0 0 45.7-0.1 105.7-23.8 33.9-13.4 72.4-34.3 109.7-67.1 0.3-0.2 0.5-0.4 0.8-0.7 0 0 2.8-2.5 7.5-7.1 11.4-11.2 33.6-34.9 52.8-66.3 8.1-13.3 15.7-28 21.7-43.7 15.8-38.2 20.1-67.4 20.8-94.2 0.4-15.1-0.3-29.5-0.8-44.3v-0.4s0-0.3-0.1-0.9c-1.1-8.7-10.3-76.4-41.6-125.8 0 0-20.6-31.8-44.7-58.6-10.4-11.5-21.4-22.2-31.8-29 0-0.1 115.5 413.7-197.9 560.9z" fill="#7749E8" p-id="3385"></path></svg>